<svg viewBox="0 0 132 130" fill="none" xmlns="http://www.w3.org/2000/svg" height="120" width="120">
<path d="M10.4 99.7c-1.8-1.1-2.8-2.5-2.8-4V91l53-27.2c3.8-1.9 9.3-1.9 13 0L123.8 89v4.8c0 1.5-1 3-2.8 4l-49.8 29.1a15.3 15.3 0 0 1-14 0L10.4 99.7Z" fill="#101012" stroke="lch(19% 3.54 272 / 1)" stroke-width="1.5"></path>
<path d="M10.4 94.7c-3.8-2.2-3.8-5.8 0-8L60.2 58c3.8-2.2 10-2.2 13.9 0l47 27.1c3.7 2.2 3.7 5.8 0 8l-49.9 28.7c-3.8 2.3-10 2.3-13.8 0l-47-27Z" fill="#101012" stroke="lch(38.29% 1.35 272 / 1)" stroke-width="1.5"></path>
<path d="M10.4 85.3c-1.8-1-2.8-2.5-2.8-4v-4.6l53-27.2c3.8-2 9.3-2 13 0l50.2 25.2v4.8c0 1.4-1 2.9-2.8 4l-49.8 29a15.3 15.3 0 0 1-14 0L10.4 85.4Z" fill="#101012" stroke="lch(38.29% 1.35 272 / 1)" stroke-width="1.5"></path>
<path d="M10.4 80.4c-3.8-2.2-3.8-5.8 0-8l49.8-28.7c3.8-2.3 10-2.3 13.9 0l47 27c3.7 2.3 3.7 5.9 0 8l-49.9 28.8c-3.8 2.2-10 2.2-13.8 0l-47-27.1Z" fill="#101012" stroke="lch(62.6% 1.35 272 / 1)" stroke-width="1.5"></path>
<path d="M32 82.5 76.2 57M39.8 87 84 61.5m-36.4 30L91.8 66M55.3 96 83 80" stroke="lch(19% 3.54 272 / 1)" stroke-width="1.5" stroke-linecap="round"></path>
<path d="M10.3 45c-1.5-1.5-2.1-3.2-1.8-4.6l1.3-4.5L68 23.3c4-.8 9.4.6 12.5 3.4l42 37.3-1.3 4.6c-.4 1.5-1.7 2.6-3.7 3.2L61.9 87a15.3 15.3 0 0 1-13.5-3.6L10.3 45Z" fill="#101012" stroke="lch(62.6% 1.35 272 / 1)" stroke-width="1.5"></path>
<path d="M11.5 40.2c-3-3.1-2.2-6.6 2.1-7.7l55.5-14.9c4.3-1.1 10.3.5 13.4 3.6L121 59.5c3 3.2 2.2 6.6-2.1 7.8L63.3 82a15.3 15.3 0 0 1-13.4-3.6L11.5 40.2Z" fill="#101012" stroke="lch(90.65% 1.35 272 / 1)" stroke-width="1.5"></path>
<path d="m27.2 40.6 49.3-13.2M33.5 47l49.3-13.2M40 53.3l49.3-13.2m-43 19.6L77 51.5" stroke="lch(90.65% 1.35 272 / 1)" stroke-width="1.5" stroke-linecap="round"></path>
<path fill-rule="evenodd" clip-rule="evenodd" d="M128.1 2.6a5.5 5.5 0 0 1 0 7.8l-33 33A19.4 19.4 0 0 1 82.6 49c-.5 0-1-.4-.9-1 .3-4.6 2.3-9 5.6-12.4l33-33a5.5 5.5 0 0 1 7.8 0Z" fill="#101012" stroke="lch(62.6% 1.35 272 / 1)" stroke-width="1.5"></path>
</svg>