<svg viewBox="20 23 125 93" fill="none" xmlns="http://www.w3.org/2000/svg" height="120" width="120">
<path d="M38.3 65.9c-.5-.4-1.2-.4-1.8 0l-9.3 5.4c-3.2 1.8-5 4.3-5 7 0 2.6 1.8 5.1 5 7l11.1 6.4a1.8 1.8 0 1 0 1.8-3.2l-10-5.8c-2.4-1.3-3.4-3-3.4-4.4 0-1.5 1-3.2 3.3-4.5l8.3-4.8a1.8 1.8 0 0 0 0-3.1Zm24.4-12a2 2 0 0 0 1.8 0l9.4-5.4c2.3-1.3 5.3-2 8.4-2 3.1 0 6.2.7 8.5 2l11.1 6.4a1.8 1.8 0 0 0 1.9-3.1L93.7 46a23.1 23.1 0 0 0-11.4-2.8c-4 0-8.1 1-11.3 2.8l-8.3 4.8a1.8 1.8 0 0 0 0 3.1Zm63.6 33.6a1.8 1.8 0 0 0 1.8 3.1l9.4-5.4c3.2-1.8 5-4.3 5-7 0-2.6-1.8-5-5-7L130 67a1.8 1.8 0 0 0-1.8 3.1l6.5 3.8c2.3 1.3 3.3 3 3.3 4.5 0 1.4-1 3-3.3 4.4l-8.3 4.8Zm-60 16.1a1.8 1.8 0 0 0-1.8 3.2l6.5 3.7c3.2 1.9 7.3 2.8 11.3 2.8 4.1 0 8.2-1 11.4-2.8l8.3-4.8a1.8 1.8 0 0 0-1.8-3l-9.4 5.3c-2.3 1.3-5.4 2-8.5 2-3 0-6.1-.7-8.4-2l-7.6-4.4Z" fill="#101012" stroke="lch(19% 3.54 272 / 1)" stroke-width="1.5"></path>
<ellipse cx="17" cy="11.2" rx="17" ry="11.2" transform="matrix(-1 0 0 1 99 63)" fill="#101012" stroke="lch(19% 3.54 272 / 1)" stroke-width="1.5" stroke-dasharray="3 3"></ellipse>
<path d="m36.1 48.2-10.5 6.1a8.6 8.6 0 0 0-4.3 8.6 11 11 0 0 0 5.5 8.3l10.6 6.2a2.2 2.2 0 0 0 3.3-2v-2.1c0-1.1-.6-2-1.5-2.5a79.8 79.8 0 0 1-8.2-4.5 12 12 0 0 1-3.5-3l-.3-1c0-.2 0-.4.2-.7.4-.5 1.1-1.1 2.3-1.8l7.7-4.6c.8-.5 1.3-1.4 1.3-2.3v-3.2c0-1.3-1.4-2.2-2.6-1.5Zm98.2 11.6c2.2 1.3 3.2 2.9 3.3 4.3 0 1.5-.8 3-3 4.4a1 1 0 0 1-.4.1l-6.9.5a2.7 2.7 0 0 0-2.5 2.8v1.3c0 2 2.1 3.4 4 2.4l8.3-4.3c3.8-1.7 5.8-4.6 6-7.9a10.7 10.7 0 0 0-4.4-9.1l-9.3-5.6c-1.2-.6-2.7.2-2.7 1.6v3.5c0 1 .6 2 1.4 2.4l6.2 3.6ZM70.6 96.5c3.2 1.9 7.3 2.8 11.4 2.8 4 0 8.1-1 11.3-2.8l8-4.3c.9-.5 1.4-1.4 1.4-2.4v-3.5c0-1.4-1.5-2.2-2.6-1.5l-9.7 6a17 17 0 0 1-16 0l-8.5-5c-1.2-.7-2.7.1-2.7 1.5v3c0 1 .5 2 1.3 2.4l6.1 3.8ZM62 39.7c.7.4 1.7.4 2.5 0l9-5.2c2.3-1.3 5.4-2 8.5-2 3 0 6.1.7 8.4 2l10.9 6.2a2.3 2.3 0 0 0 3.4-2v-2.6c0-1-.5-1.8-1.3-2.3a39.5 39.5 0 0 0-41.3-1c-.9.5-1.4 1.4-1.4 2.4v2.3c0 .9.5 1.7 1.3 2.2Z" fill="lch(7.133% 1.867 272 / 1)" stroke="lch(38.29% 1.35 272 / 1)" stroke-width="1.5"></path>
<path d="M38 47.9c-.6-.4-1.3-.4-1.8 0l-9.4 5.4c-3.2 1.8-5 4.3-5 7 0 2.6 1.8 5.1 5 7L38 73.6a1.8 1.8 0 1 0 1.9-3.2l-10.1-5.8c-2.3-1.3-3.3-3-3.3-4.4 0-1.5 1-3.2 3.3-4.5L38 51a1.8 1.8 0 0 0 0-3.1Zm24.3-12c.6.3 1.3.3 1.9 0l9.3-5.4c2.3-1.3 5.4-2 8.5-2 3 0 6.1.7 8.4 2l11.2 6.4a1.8 1.8 0 0 0 1.8-3.1l-10-5.8A23.1 23.1 0 0 0 82 25.2c-4 0-8.2 1-11.4 2.8l-8.3 4.8a1.8 1.8 0 0 0 0 3.1ZM126 69.5a1.8 1.8 0 1 0 1.8 3.1l9.4-5.4c3.1-1.8 4.9-4.3 4.9-7 0-2.6-1.8-5-5-7l-7.5-4.3a1.8 1.8 0 0 0-1.9 3.1l6.6 3.8c2.3 1.3 3.3 3 3.3 4.5 0 1.4-1 3-3.3 4.4l-8.3 4.8ZM66 85.6a1.8 1.8 0 1 0-1.9 3.2l6.5 3.7c3.2 1.9 7.3 2.8 11.4 2.8 4 0 8.2-1 11.3-2.8l8.3-4.8a1.8 1.8 0 0 0-1.8-3L90.4 90c-2.3 1.3-5.3 2-8.4 2-3.1 0-6.2-.7-8.5-2L66 85.6Z" fill="#101012" stroke="lch(62.6% 1.35 272 / 1)" stroke-width="1.5"></path>
<path d="M82 69c-9.4 0-17-5.1-17-11.5v-4.4h34v4.4C99 64 91.4 69 82 69Z" fill="lch(7.133% 1.867 272 / 1)" stroke="lch(90.65% 1.35 272 / 1)" stroke-width="1.5"></path><ellipse cx="17" cy="11.2" rx="17" ry="11.2" transform="matrix(-1 0 0 1 99 41)" fill="#101012" stroke="lch(90.65% 1.35 272 / 1)" stroke-width="1.5"></ellipse>
<ellipse cx="13" cy="7.8" rx="13" ry="7.8" transform="matrix(-1 0 0 1 95 44.4)" fill="#101012" stroke="lch(38.29% 1.35 272 / 1)" stroke-width="1.5" stroke-linecap="round"></ellipse>
</svg>