<svg xmlns="http://www.w3.org/2000/svg" viewBox="0 0 119 68" fill="none" height="120" width="120">
<path fill="lch(7.382% 0.5 139.088 / 1)" stroke="lch(13.382% 1.7 139.088 / 1)" stroke-linecap="round" stroke-linejoin="round" stroke-width="1" d="
M4.25 1A2.25 2.25 0 0 1 5 5.372v5.256A2.252 2.252 0 0 1 4.25 15a2.25 2.25 0 0 1-.75-4.372V5.372A2.251 2.251 0 0 1 4.25 1Zm0 11a.75.75 0 1 0 0 1.5.75.75 0 0 0 0-1.5Zm0-9.5a.75.75 0 1 0 0 1.5.75.75 0 0 0 0-1.5Z
"></path>
<path fill="lch(7.382% 0.5 139.088 / 1)" stroke="lch(13.382% 1.7 139.088 / 1)" stroke-linecap="round" stroke-linejoin="round" stroke-width="1" d="M13.22 9.72a.75.75 0 1 1 1.06 1.06l-1.47 1.47 1.47 1.47a.75.75 0 1 1-1.06 1.06l-1.47-1.47-1.47 1.47a.75.75 0 1 1-1.06-1.06l1.47-1.47-1.47-1.47a.75.75 0 1 1 1.06-1.06l1.47 1.47 1.47-1.47ZM9.013 1.185a.75.75 0 0 1 1.237.57V2.5a2.25 2.25 0 0 1 2.25 2.249l.001 3.18-.001.073a.751.751 0 0 1-1.5 0V4.75a.75.75 0 0 0-.75-.75v1a.75.75 0 0 1-1.28.53L7.22 3.78a.75.75 0 0 1 .043-1.1l1.75-1.495Z"></path>
</svg>