<svg xmlns="http://www.w3.org/2000/svg" viewBox="0 0 119 68" fill="none" height="120" width="120">
<path fill="lch(7.382% 0.5 139.088 / 1)" stroke="lch(13.382% 1.7 139.088 / 1)" stroke-width="1.5" d="M62 33.5c-9.39 0-17-5.96-17-13.3V15h34v5.2c0 7.34-7.61 13.3-17 13.3Z"></path>
<ellipse cx="17" cy="13.05" rx="17" ry="13.05" transform="matrix(-1 0 0 1 79 1)" fill="lch(7.382% 0.5 139.088 / 1)" stroke="lch(13.382% 1.7 139.088 / 1)" stroke-width="1.5"></ellipse>
<ellipse cx="13" cy="9" rx="13" ry="9" transform="matrix(-1 0 0 1 75 5)" stroke="lch(13.382% 1.7 139.088 / 1)" stroke-width="1.5"></ellipse>
<path fill="lch(7.382% 0.5 139.088 / 1)" stroke="lch(13.382% 1.7 139.088 / 1)" stroke-width="1.5" d="M18 72.5c-9.39 0-17-5.96-17-13.3V54h34v5.2c0 7.34-7.61 13.3-17 13.3Z"></path>
<ellipse cx="17" cy="13.05" rx="17" ry="13.05" transform="matrix(-1 0 0 1 35 40)" stroke="lch(13.382% 1.7 139.088 / 1)" stroke-width="1.5"></ellipse>
<ellipse cx="13" cy="9" rx="13" ry="9" transform="matrix(-1 0 0 1 31 44)" stroke="lch(13.382% 1.7 139.088 / 1)" stroke-width="1.5"></ellipse>
<path fill="lch(7.382% 0.5 139.088 / 1)" d="M18 53 L18 47 c5.52 0 10 2.69 10 6 c0 3.31 -4.48 6 -10 6 c-5.52 0 -10 -2.69 -10 -6 Z"></path>
<path fill="lch(7.382% 0.5 139.088 / 1)" stroke="lch(13.382% 1.7 139.088 / 1)" stroke-width="1.5" d="M62 72.5c-9.39 0-17-5.96-17-13.3V54h34v5.2c0 7.34-7.61 13.3-17 13.3Z"></path>
<ellipse cx="17" cy="13.05" rx="17" ry="13.05" transform="matrix(-1 0 0 1 79 40)" fill="lch(7.382% 0.5 139.088 / 1)" stroke="lch(13.382% 1.7 139.088 / 1)" stroke-width="1.5"></ellipse>
<ellipse cx="13" cy="9" rx="13" ry="9" transform="matrix(-1 0 0 1 75 44)" stroke="lch(13.382% 1.7 139.088 / 1)" stroke-width="1.5"></ellipse>
<path fill="lch(7.382% 0.5 139.088 / 1)" d="M72 53c0 3.31-4.48 6-10 6V47c5.52 0 10 2.69 10 6Z"></path>
<path stroke="lch(13.382% 1.7 139.088 / 1)" stroke-width="1.5" d="M18 33.5c-9.39 0-17-5.96-17-13.3V15h34v5.2c0 7.34-7.61 13.3-17 13.3Z"></path>
<ellipse cx="17" cy="13.05" rx="17" ry="13.05" transform="matrix(-1 0 0 1 35 1)" fill="lch(7.382% 0.5 139.088 / 1)" stroke="lch(13.382% 1.7 139.088 / 1)" stroke-width="1.5"></ellipse>
<ellipse cx="13" cy="9" rx="13" ry="9" transform="matrix(-1 0 0 1 31 5)" stroke="lch(13.382% 1.7 139.088 / 1)" stroke-width="1.5"></ellipse>
<path d="M72 14c0-3.31-4.48-6-10-6v6h10Z" fillRule="evenodd" clipRule="evenodd" fill="lch(7.382% 0.5 139.088 / 1)"></path>
</svg>