<svg xmlns="http://www.w3.org/2000/svg" fill="none" viewBox="0 0 91 95" height="60" width="60">
<path fill="#101012" fill-rule="evenodd" d="M10.7 49c2.6-1.4 3.9-2 5.2-2.4 1.2-.2 2.5-.2 3.7 0 1.3.3 2.6 1 5.2 2.4l3.7 2c2.5 1.3 3.8 2 4.7 3a8 8 0 0 1 1.8 2.9c.5 1.2.5 2.6.5 5.3v4c0 2.7 0 4.1-.5 5.3-.3 1.1-1 2.1-1.8 3-1 1-2.2 1.6-4.7 3l-3.7 2c-2.6 1.3-3.9 2-5.2 2.3-1.2.2-2.5.2-3.7 0a23 23 0 0 1-5.2-2.4l-3.7-2c-2.5-1.3-3.8-2-4.7-3a8 8 0 0 1-1.9-2.9C0 70.3 0 69 0 66.2v-4c0-2.7 0-4 .4-5.3.4-1 1-2 1.9-3 .9-.9 2.2-1.6 4.7-3l3.7-2Z" clip-rule="evenodd"></path>
<path fill="lch(62.6% 1.35 272 / 1)" fill-rule="evenodd" d="M10.7 49c2.6-1.4 3.9-2 5.2-2.4 1.2-.2 2.5-.2 3.7 0 1.3.3 2.6 1 5.2 2.4l3.7 2c2.5 1.3 3.8 2 4.7 3a8 8 0 0 1 1.8 2.9c.5 1.2.5 2.6.5 5.3v4c0 2.7 0 4.1-.5 5.3-.3 1.1-1 2.1-1.8 3-1 1-2.2 1.6-4.7 3l-3.7 2c-2.6 1.3-3.9 2-5.2 2.3-1.2.2-2.5.2-3.7 0a23 23 0 0 1-5.2-2.4l-3.7-2c-2.5-1.3-3.8-2-4.7-3a8 8 0 0 1-1.9-2.9C0 70.3 0 69 0 66.2v-4c0-2.7 0-4 .4-5.3.4-1 1-2 1.9-3 .9-.9 2.2-1.6 4.7-3l3.7-2Zm13.4 1.3 3.6 2a18 18 0 0 1 4.4 2.7l.7.7L22 61.1l-.8.4c-2 1-4.4 1-6.4 0l-1-.4-11-5.5.5-.6c.8-.7 1.8-1.3 4.4-2.7l3.7-2a19 19 0 0 1 4.8-2.2c1-.2 2-.2 3 0 1.2.2 2.2.8 4.9 2.2ZM2 56.8l-.3.6c-.3 1-.3 2-.3 4.8v4c0 2.8 0 3.9.3 4.8.4.9.9 1.7 1.5 2.4.8.8 1.8 1.3 4.4 2.7l3.7 2a19 19 0 0 0 4.8 2.2l.8.1.2-11.4c0-2.8-1.5-5.3-4-6.6l-11-5.6Zm16.6 23.6.6-.1c1-.2 2.1-.8 4.8-2.2l3.6-2a18 18 0 0 0 4.4-2.7 6 6 0 0 0 1.5-2.4c.4-.9.4-2 .4-4.8v-4a15.7 15.7 0 0 0-.5-5.1l-10.9 5.4a7.2 7.2 0 0 0-3.9 6.4v11.5Z" clip-rule="evenodd"></path>
<path fill="#101012" fill-rule="evenodd" d="M56.7 49c2.6-1.4 3.9-2 5.2-2.4 1.2-.2 2.5-.2 3.7 0 1.3.3 2.6 1 5.2 2.4l3.7 2c2.5 1.3 3.8 2 4.7 3a8 8 0 0 1 1.8 2.9c.5 1.2.5 2.6.5 5.3v4c0 2.7 0 4.1-.5 5.3-.3 1.1-1 2.1-1.8 3-1 1-2.2 1.6-4.7 3l-3.7 2c-2.6 1.3-3.9 2-5.2 2.3-1.2.2-2.5.2-3.7 0a23 23 0 0 1-5.2-2.4l-3.7-2c-2.5-1.3-3.8-2-4.7-3a8 8 0 0 1-1.9-2.9c-.4-1.2-.4-2.6-.4-5.3v-4c0-2.7 0-4 .4-5.3.4-1 1-2 1.9-3 .9-.9 2.2-1.6 4.7-3l3.7-2Z" clip-rule="evenodd"></path>
<path fill="lch(62.6% 1.35 272 / 1)" fill-rule="evenodd" d="M56.7 49c2.6-1.4 3.9-2 5.2-2.4 1.2-.2 2.5-.2 3.7 0 1.3.3 2.6 1 5.2 2.4l3.7 2c2.5 1.3 3.8 2 4.7 3a8 8 0 0 1 1.8 2.9c.5 1.2.5 2.6.5 5.3v4c0 2.7 0 4.1-.5 5.3-.3 1.1-1 2.1-1.8 3-1 1-2.2 1.6-4.7 3l-3.7 2c-2.6 1.3-3.9 2-5.2 2.3-1.2.2-2.5.2-3.7 0a23 23 0 0 1-5.2-2.4l-3.7-2c-2.5-1.3-3.8-2-4.7-3a8 8 0 0 1-1.9-2.9c-.4-1.2-.4-2.6-.4-5.3v-4c0-2.7 0-4 .4-5.3.4-1 1-2 1.9-3 .9-.9 2.2-1.6 4.7-3l3.7-2Zm13.4 1.3 3.6 2a18 18 0 0 1 4.4 2.7l.7.7L68 61.1l-.8.4c-2 1-4.4 1-6.4 0l-1-.4-11-5.5.5-.6c.8-.7 1.8-1.3 4.4-2.7l3.7-2a19 19 0 0 1 4.8-2.2c1-.2 2-.2 3 0 1.2.2 2.2.8 4.9 2.2Zm-22 6.5-.3.6c-.3 1-.3 2-.3 4.8v4c0 2.8 0 3.9.3 4.8.4.9.9 1.7 1.5 2.4.8.8 1.8 1.3 4.4 2.7l3.7 2a19 19 0 0 0 4.8 2.2l.8.1.2-11.4c0-2.8-1.5-5.3-4-6.6l-11.1-5.6Zm16.6 23.6.6-.1c1-.2 2.1-.8 4.8-2.2l3.6-2a18 18 0 0 0 4.4-2.7 6 6 0 0 0 1.5-2.4c.4-.9.4-2 .4-4.8v-4a15.7 15.7 0 0 0-.5-5.1l-10.9 5.4a7.2 7.2 0 0 0-3.8 6.4v11.5Z" clip-rule="evenodd"></path>
<path fill="#101012" fill-rule="evenodd" d="M33.7 62c2.6-1.4 3.9-2 5.2-2.4 1.2-.2 2.5-.2 3.7 0 1.3.3 2.6 1 5.2 2.4l3.7 2c2.5 1.3 3.8 2 4.7 3a8 8 0 0 1 1.8 2.9c.5 1.2.5 2.6.5 5.3v4c0 2.7 0 4.1-.5 5.3-.3 1.1-1 2.1-1.8 3-1 1-2.2 1.6-4.7 3l-3.7 2c-2.6 1.3-3.9 2-5.2 2.3-1.2.2-2.5.2-3.7 0a23 23 0 0 1-5.2-2.4l-3.7-2c-2.5-1.3-3.8-2-4.7-3a8 8 0 0 1-1.9-2.9c-.4-1.2-.4-2.6-.4-5.3v-4c0-2.7 0-4 .4-5.3.4-1 1-2 1.9-3 .9-.9 2.2-1.6 4.7-3l3.7-2Z" clip-rule="evenodd"></path>
<path fill="lch(62.6% 1.35 272 / 1)" fill-rule="evenodd" d="M33.7 62c2.6-1.4 3.9-2 5.2-2.4 1.2-.2 2.5-.2 3.7 0 1.3.3 2.6 1 5.2 2.4l3.7 2c2.5 1.3 3.8 2 4.7 3a8 8 0 0 1 1.8 2.9c.5 1.2.5 2.6.5 5.3v4c0 2.7 0 4.1-.5 5.3-.3 1.1-1 2.1-1.8 3-1 1-2.2 1.6-4.7 3l-3.7 2c-2.6 1.3-3.9 2-5.2 2.3-1.2.2-2.5.2-3.7 0a23 23 0 0 1-5.2-2.4l-3.7-2c-2.5-1.3-3.8-2-4.7-3a8 8 0 0 1-1.9-2.9c-.4-1.2-.4-2.6-.4-5.3v-4c0-2.7 0-4 .4-5.3.4-1 1-2 1.9-3 .9-.9 2.2-1.6 4.7-3l3.7-2Zm13.4 1.3 3.6 2a18 18 0 0 1 4.4 2.7l.7.7L45 74.1l-.8.4c-2 1-4.4 1-6.4 0l-1-.4-11-5.5.5-.6c.8-.7 1.8-1.3 4.4-2.7l3.7-2a19 19 0 0 1 4.8-2.2c1-.2 2-.2 3 0 1.2.2 2.2.8 4.9 2.2Zm-22 6.5-.3.6c-.3 1-.3 2-.3 4.8v4c0 2.8 0 3.9.3 4.8.4.9.9 1.7 1.5 2.4.8.8 1.8 1.3 4.4 2.7l3.7 2a19 19 0 0 0 4.8 2.2l.8.1.2-11.4c0-2.8-1.5-5.3-4-6.6l-11.1-5.6Zm16.6 23.6.6-.1c1-.2 2.1-.8 4.8-2.2l3.6-2a18 18 0 0 0 4.4-2.7 6 6 0 0 0 1.5-2.4c.4-.9.4-2 .4-4.8v-4a15.7 15.7 0 0 0-.5-5.1l-10.9 5.4a7.2 7.2 0 0 0-3.9 6.4v11.5Z" clip-rule="evenodd"></path>
<path fill="#101012" fill-rule="evenodd" d="M33.7 12c2.6-1.4 3.9-2 5.2-2.4 1.2-.2 2.5-.2 3.7 0 1.3.3 2.6 1 5.2 2.4l3.7 2c2.5 1.3 3.8 2 4.7 3a8 8 0 0 1 1.8 2.9c.5 1.2.5 2.6.5 5.3v4c0 2.7 0 4.1-.5 5.3-.3 1.1-1 2.1-1.8 3-1 1-2.2 1.6-4.7 3l-3.7 2c-2.6 1.3-3.9 2-5.2 2.3-1.2.2-2.5.2-3.7 0a23 23 0 0 1-5.2-2.4l-3.7-2c-2.5-1.3-3.8-2-4.7-3a8 8 0 0 1-1.9-2.9c-.4-1.2-.4-2.6-.4-5.3v-4c0-2.7 0-4 .4-5.3.4-1 1-2 1.9-3 .9-.9 2.2-1.6 4.7-3l3.7-2Z" clip-rule="evenodd"></path>
<path fill="lch(62.6% 1.35 272 / 1)" fill-rule="evenodd" d="M33.7 12c2.6-1.4 3.9-2 5.2-2.4 1.2-.2 2.5-.2 3.7 0 1.3.3 2.6 1 5.2 2.4l3.7 2c2.5 1.3 3.8 2 4.7 3a8 8 0 0 1 1.8 2.9c.5 1.2.5 2.6.5 5.3v4c0 2.7 0 4.1-.5 5.3-.3 1.1-1 2.1-1.8 3-1 1-2.2 1.6-4.7 3l-3.7 2c-2.6 1.3-3.9 2-5.2 2.3-1.2.2-2.5.2-3.7 0a23 23 0 0 1-5.2-2.4l-3.7-2c-2.5-1.3-3.8-2-4.7-3a8 8 0 0 1-1.9-2.9c-.4-1.2-.4-2.6-.4-5.3v-4c0-2.7 0-4 .4-5.3.4-1 1-2 1.9-3 .9-.9 2.2-1.6 4.7-3l3.7-2Zm13.4 1.3 3.6 2a18 18 0 0 1 4.4 2.7l.7.7L45 24.1l-.8.4c-2 1-4.4 1-6.4 0l-1-.4-11-5.5.5-.6c.8-.7 1.8-1.3 4.4-2.7l3.7-2a19 19 0 0 1 4.8-2.2c1-.2 2-.2 3 0 1.2.2 2.2.8 4.9 2.2Zm-22 6.5-.3.6c-.3 1-.3 2-.3 4.8v4c0 2.8 0 3.9.3 4.8.4.9.9 1.7 1.5 2.4.8.8 1.8 1.3 4.4 2.7l3.7 2a19 19 0 0 0 4.8 2.2l.8.1.2-11.4c0-2.8-1.5-5.3-4-6.6l-11.1-5.6Zm16.6 23.6.6-.1c1-.2 2.1-.8 4.8-2.2l3.6-2a18 18 0 0 0 4.4-2.7 6 6 0 0 0 1.5-2.4c.4-.9.4-2 .4-4.8v-4a15.7 15.7 0 0 0-.5-5.1l-10.9 5.4a7.2 7.2 0 0 0-3.9 6.4v11.5Z" clip-rule="evenodd"></path>
<path fill="#101012" fill-rule="evenodd" d="M66.2 4.8c2.8-.8 4.2-1.2 5.6-1.1 1.3 0 2.5.3 3.6.8 1.3.5 2.3 1.5 4.5 3.4l3.2 2.7c2.2 2 3.3 2.9 4 4a8 8 0 0 1 1.1 3.3c.2 1.3-.1 2.6-.7 5.3l-.9 3.8c-.6 2.7-.9 4-1.6 5.2a8 8 0 0 1-2.4 2.4c-1.1.7-2.5 1.1-5.3 1.9l-4 1.1c-2.9.8-4.3 1.2-5.6 1.1-1.3 0-2.5-.3-3.6-.8-1.3-.5-2.4-1.5-4.6-3.4l-3.1-2.7c-2.2-2-3.3-2.9-4-4a8 8 0 0 1-1.2-3.3c-.1-1.3.2-2.6.8-5.3l.9-3.8c.6-2.7.9-4 1.6-5.1a8 8 0 0 1 2.4-2.5c1.1-.7 2.5-1.1 5.3-1.9l4-1.1Z" clip-rule="evenodd" style="transform: translate(0px, 23.5px) rotate(-12deg); transform-origin: center center"></path>
<path fill="lch(90.65% 1.35 272 / 1)" fill-rule="evenodd" d="M66.2 4.8c2.8-.8 4.2-1.2 5.6-1.1 1.3 0 2.5.3 3.6.8 1.3.5 2.3 1.5 4.5 3.4l3.2 2.7c2.2 2 3.3 2.9 4 4a8 8 0 0 1 1.1 3.3c.2 1.3-.1 2.6-.7 5.3l-.9 3.8c-.6 2.7-.9 4-1.6 5.2a8 8 0 0 1-2.4 2.4c-1.1.7-2.5 1.1-5.3 1.9l-4 1.1c-2.9.8-4.3 1.2-5.6 1.1-1.3 0-2.5-.3-3.6-.8-1.3-.5-2.4-1.5-4.6-3.4l-3.1-2.7c-2.2-2-3.3-2.9-4-4a8 8 0 0 1-1.2-3.3c-.1-1.3.2-2.6.8-5.3l.9-3.8c.6-2.7.9-4 1.6-5.1a8 8 0 0 1 2.4-2.5c1.1-.7 2.5-1.1 5.3-1.9l4-1.1ZM79 9l3.1 2.8c2.3 2 3.2 2.7 3.7 3.6l.5.9L74.7 19h-.2l-.8.3c-2.2.5-4.5 0-6.3-1.5l-.7-.6L57 9.5l.6-.4c.9-.6 2-1 4.9-1.7l4-1.2a19 19 0 0 1 5.2-1c1 0 2 .2 3 .7 1 .4 1.9 1.2 4.2 3.1Zm-23 1.6-.3.5c-.5.8-.7 1.8-1.4 4.6l-.8 3.9c-.7 2.7-.9 3.8-.8 4.8.1.9.5 1.8 1 2.6.5.9 1.4 1.7 3.6 3.6l3.2 2.8a19 19 0 0 0 4.2 3.2l.7.2 2.7-11c.7-2.7-.3-5.6-2.4-7.3l-9.6-8Zm11.2 26.6h.5a19 19 0 0 0 5.1-1l4-1.1c3-.8 4-1.2 5-1.7.8-.6 1.4-1.3 2-2 .5-.9.7-2 1.3-4.7l1-3.8a15.7 15.7 0 0 0 .6-5.2l-11.8 3a7.2 7.2 0 0 0-5.2 5.3l-2.5 11.2Z" clip-rule="evenodd" style="transform: translate(0px, 23.5px) rotate(-12deg); transform-origin: center center"></path>
<path fill="#101012" fill-rule="evenodd" d="M10.7 24c2.6-1.4 3.9-2 5.2-2.4 1.2-.2 2.5-.2 3.7 0 1.3.3 2.6 1 5.2 2.4l3.7 2c2.5 1.3 3.8 2 4.7 3a8 8 0 0 1 1.8 2.9c.5 1.2.5 2.6.5 5.3v4c0 2.7 0 4.1-.5 5.3-.3 1.1-1 2.1-1.8 3-1 1-2.2 1.6-4.7 3l-3.7 2c-2.6 1.3-3.9 2-5.2 2.3-1.2.2-2.5.2-3.7 0a23 23 0 0 1-5.2-2.4l-3.7-2c-2.5-1.3-3.8-2-4.7-3a8 8 0 0 1-1.9-2.9C0 45.3 0 44 0 41.2v-4c0-2.7 0-4 .4-5.3.4-1 1-2 1.9-3 .9-.9 2.2-1.6 4.7-3l3.7-2Z" clip-rule="evenodd"></path>
<path fill="lch(62.6% 1.35 272 / 1)" fill-rule="evenodd" d="M10.7 24c2.6-1.4 3.9-2 5.2-2.4 1.2-.2 2.5-.2 3.7 0 1.3.3 2.6 1 5.2 2.4l3.7 2c2.5 1.3 3.8 2 4.7 3a8 8 0 0 1 1.8 2.9c.5 1.2.5 2.6.5 5.3v4c0 2.7 0 4.1-.5 5.3-.3 1.1-1 2.1-1.8 3-1 1-2.2 1.6-4.7 3l-3.7 2c-2.6 1.3-3.9 2-5.2 2.3-1.2.2-2.5.2-3.7 0a23 23 0 0 1-5.2-2.4l-3.7-2c-2.5-1.3-3.8-2-4.7-3a8 8 0 0 1-1.9-2.9C0 45.3 0 44 0 41.2v-4c0-2.7 0-4 .4-5.3.4-1 1-2 1.9-3 .9-.9 2.2-1.6 4.7-3l3.7-2Zm13.4 1.3 3.6 2a18 18 0 0 1 4.4 2.7l.7.7L22 36.1l-.8.4c-2 1-4.4 1-6.4 0l-1-.4-11-5.5.5-.6c.8-.7 1.8-1.3 4.4-2.7l3.7-2a19 19 0 0 1 4.8-2.2c1-.2 2-.2 3 0 1.2.2 2.2.8 4.9 2.2ZM2 31.8l-.3.6c-.3 1-.3 2-.3 4.8v4c0 2.8 0 3.9.3 4.8.4.9.9 1.7 1.5 2.4.8.8 1.8 1.3 4.4 2.7l3.7 2a19 19 0 0 0 4.8 2.2l.8.1.2-11.4c0-2.8-1.5-5.3-4-6.6l-11-5.6Zm16.6 23.6.6-.1c1-.2 2.1-.8 4.8-2.2l3.6-2a18 18 0 0 0 4.4-2.7 6 6 0 0 0 1.5-2.4c.4-.9.4-2 .4-4.8v-4a15.7 15.7 0 0 0-.5-5.1l-10.9 5.4a7.2 7.2 0 0 0-3.9 6.4v11.5Z" clip-rule="evenodd"></path>
<path fill="#101012" fill-rule="evenodd" d="M33.7 37.05C36.3 35.65 37.6 35.05 38.9 34.65C40.1 34.45 41.4 34.45 42.6 34.65C43.9 34.95 45.2 35.65 47.8 37.05L51.5 39.05C54 40.35 55.3 41.05 56.2 42.05C57.0016 42.8759 57.6156 43.8651 58 44.95C58.5 46.15 58.5 47.55 58.5 50.25V54.25C58.5 56.95 58.5 58.35 58 59.55C57.7 60.65 57 61.65 56.2 62.55C55.2 63.55 54 64.15 51.5 65.55L47.8 67.55C45.2 68.85 43.9 69.55 42.6 69.85C41.4 70.05 40.1 70.05 38.9 69.85C37.0734 69.2698 35.3266 68.4635 33.7 67.45L30 65.45C27.5 64.15 26.2 63.45 25.3 62.45C24.4623 61.6338 23.8137 60.6439 23.4 59.55C23 58.35 23 56.95 23 54.25V50.25C23 47.55 23 46.25 23.4 44.95C23.8 43.95 24.4 42.95 25.3 41.95C26.2 41.05 27.5 40.35 30 38.95L33.7 36.95V37.05Z" clip-rule="evenodd"></path>
<path fill="lch(62.6% 1.35 272 / 1)" fill-rule="evenodd" d="M33.7 37.05C36.3 35.65 37.6 35.05 38.9 34.65C40.1 34.45 41.4 34.45 42.6 34.65C43.9 34.95 45.2 35.65 47.8 37.05L51.5 39.05C54 40.35 55.3 41.05 56.2 42.05C57.0016 42.8759 57.6156 43.8651 58 44.95C58.5 46.15 58.5 47.55 58.5 50.25V54.25C58.5 56.95 58.5 58.35 58 59.55C57.7 60.65 57 61.65 56.2 62.55C55.2 63.55 54 64.15 51.5 65.55L47.8 67.55C45.2 68.85 43.9 69.55 42.6 69.85C41.4 70.05 40.1 70.05 38.9 69.85C37.0734 69.2698 35.3266 68.4635 33.7 67.45L30 65.45C27.5 64.15 26.2 63.45 25.3 62.45C24.4623 61.6338 23.8137 60.6439 23.4 59.55C23 58.35 23 56.95 23 54.25V50.25C23 47.55 23 46.25 23.4 44.95C23.8 43.95 24.4 42.95 25.3 41.95C26.2 41.05 27.5 40.35 30 38.95L33.7 36.95V37.05ZM47.1 38.35L50.7 40.35C52.2888 41.0339 53.7707 41.9433 55.1 43.05L55.8 43.75L45 49.15L44.2 49.55C42.2 50.55 39.8 50.55 37.8 49.55L36.8 49.15L25.8 43.65L26.3 43.05C27.1 42.35 28.1 41.75 30.7 40.35L34.4 38.35C35.8898 37.3968 37.5054 36.6564 39.2 36.15C40.2 35.95 41.2 35.95 42.2 36.15C43.4 36.35 44.4 36.95 47.1 38.35ZM25.1 44.85L24.8 45.45C24.5 46.45 24.5 47.45 24.5 50.25V54.25C24.5 57.05 24.5 58.15 24.8 59.05C25.2 59.95 25.7 60.75 26.3 61.45C27.1 62.25 28.1 62.75 30.7 64.15L34.4 66.15C35.8898 67.1032 37.5054 67.8437 39.2 68.35L40 68.45L40.2 57.05C40.2 54.25 38.7 51.75 36.2 50.45L25.1 44.85ZM41.7 68.45L42.3 68.35C43.3 68.15 44.4 67.55 47.1 66.15L50.7 64.15C52.2888 63.4661 53.7707 62.5567 55.1 61.45C55.7842 60.7811 56.2985 59.9582 56.6 59.05C57 58.15 57 57.05 57 54.25V50.25C57.1138 48.5341 56.9449 46.8111 56.5 45.15L45.6 50.55C44.425 51.1559 43.4396 52.0736 42.7516 53.2026C42.0637 54.3315 41.6999 55.628 41.7 56.95V68.45Z" clip-rule="evenodd"></path>
</svg>