<svg xmlns="http://www.w3.org/2000/svg" viewBox="0 0 119 68" fill="none" height="120" width="120">
<path fill="lch(7.382% 0.5 139.088 / 1)" stroke="lch(13.382% 1.7 139.088 / 1)" stroke-linecap="round" stroke-linejoin="round" stroke-width="1.5" d="M108.141 43.127 22.635 66.453c-2.237.61-4.906.435-7.408-.379-2.503-.813-4.763-2.242-6.212-4.051l-5.96-7.443c-.881-1.099-1.305-2.224-1.305-3.233v-3.773c0-.093.053-.3.49-.418l89.608-24.289c1.878-.509 4.116-.392 6.25.253 2.131.644 4.095 1.797 5.44 3.287l8.212 9.097v3.782c0 1.699-1.227 3.19-3.609 3.84Z"></path>
<path fill="lch(7.382% 0.5 139.088 / 1)" stroke="lch(13.382% 1.7 139.088 / 1)" stroke-linecap="round" stroke-linejoin="round" stroke-width="1.5" d="M3.107 50.575C.34 47.14 1.55 43.428 5.812 42.28l85.212-22.939c4.333-1.166 10.137.766 12.86 4.281l6.546 8.45c2.639 3.406 1.395 7.03-2.799 8.164L22.687 63.18c-4.27 1.154-9.99-.706-12.766-4.15l-6.814-8.456Z"></path>
<path fill="lch(7.382% 0.5 139.088 / 1)" stroke="lch(35.598% 1.25 139.088 / 1)" stroke-linecap="round" stroke-linejoin="round" stroke-width="1.5" d="M6.054 45.578c-.88-1.099-1.304-2.224-1.304-3.233v-3.773c0-.094.053-.3.49-.418l89.608-24.289c1.878-.509 4.116-.392 6.249.253 2.132.644 4.096 1.797 5.441 3.287l8.212 9.097V30.284c0 1.699-1.227 3.19-3.609 3.84L25.635 57.452c-2.237.61-4.906.435-7.409-.378-2.502-.814-4.762-2.243-6.212-4.052l-5.96-7.443Z"></path>
<path fill="lch(7.382% 0.5 139.088 / 1)" stroke="lch(35.598% 1.25 139.088 / 1)" stroke-linecap="round" stroke-linejoin="round" stroke-width="1.5" d="M6.108 41.573c-2.769-3.435-1.558-7.147 2.704-8.295L94.024 10.34c4.333-1.166 10.137.766 12.861 4.281l6.546 8.45c2.638 3.406 1.395 7.03-2.8 8.164L25.687 54.179c-4.27 1.154-9.99-.706-12.766-4.15l-6.813-8.456Z"></path>
<path fill="lch(7.382% 0.5 139.088 / 1)" stroke="lch(35.598% 1.25 139.088 / 1)" stroke-linecap="round" stroke-linejoin="round" stroke-width="1.5" d="M9.054 36.58c-.88-1.1-1.304-2.225-1.304-3.234v-3.773c0-.093.053-.3.49-.418L97.848 4.866c1.878-.509 4.116-.392 6.249.253 2.132.644 4.095 1.797 5.441 3.287l8.212 9.097V21.285c0 1.699-1.227 3.19-3.609 3.84L28.635 48.453c-2.238.61-4.907.435-7.409-.378-2.502-.814-4.763-2.243-6.212-4.052l-5.96-7.443Z"></path>
<path fill="lch(7.382% 0.5 139.088 / 1)" stroke="lch(60.968% 1.25 139.088 / 1)" stroke-linecap="round" stroke-linejoin="round" stroke-width="1.5" d="M9.107 32.574c-2.768-3.435-1.558-7.147 2.705-8.295L97.023 1.34c4.333-1.166 10.138.766 12.861 4.282l6.546 8.45c2.638 3.405 1.395 7.03-2.8 8.163L28.686 45.18c-4.27 1.154-9.99-.706-12.765-4.15l-6.814-8.456Z"></path>
<path stroke="lch(60.968% 1.25 139.088 / 1)" stroke-linecap="round" stroke-linejoin="round" d="m17.204 29.843.24-.436.48-.872 1.999.64.48-.872.24-.436"></path>
<path stroke="lch(60.968% 1.25 139.088 / 1)" d="M14.215 28.705c-.108-.51.191-.943.72-1.227a8.89 8.89 0 0 1 2.07-.79c.881-.217 1.792-.3 2.482-.328.752-.03 1.574.127 2.247.498.449.249.947.582 1.305.986.357.404.522.82.594 1.16.109.51-.19.943-.72 1.227a8.89 8.89 0 0 1-2.07.79c-.881.217-1.791.3-2.482.328-.752.03-1.574-.127-2.247-.498-.449-.248-.947-.582-1.305-.986a2.532 2.532 0 0 1-.594-1.16Z"></path>
<rect width="91.639" height="1.592" fill="lch(35.598% 1.25 139.088 / 1)" rx="0.796" transform="matrix(.96562 -.25994 .62836 .77792 17.712 35.129)"></rect>
<rect width="22.771" height="1.592" fill="lch(35.598% 1.25 139.088 / 1)" rx="0.796" transform="matrix(.96562 -.25994 .62836 .77792 21.713 40.082)"></rect>
</svg>